<?xml version="1.0" encoding="UTF-8" standalone="no"?>
<!-- Created with Inkscape (http://www.inkscape.org/) -->

<svg
   width="32"
   height="32"
   viewBox="0 0 8.4666664 8.4666666"
   version="1.1"
   id="svg1"
   xml:space="preserve"
   sodipodi:docname="dandelion.svg"
   inkscape:version="1.3.2 (091e20e, 2023-11-25, custom)"
   xmlns:inkscape="http://www.inkscape.org/namespaces/inkscape"
   xmlns:sodipodi="http://sodipodi.sourceforge.net/DTD/sodipodi-0.dtd"
   xmlns="http://www.w3.org/2000/svg"
   xmlns:svg="http://www.w3.org/2000/svg"><sodipodi:namedview
     id="namedview1"
     pagecolor="#505050"
     bordercolor="#eeeeee"
     borderopacity="1"
     inkscape:showpageshadow="0"
     inkscape:pageopacity="0"
     inkscape:pagecheckerboard="0"
     inkscape:deskcolor="#505050"
     inkscape:document-units="px"
     inkscape:zoom="11.313709"
     inkscape:cx="18.296388"
     inkscape:cy="9.7669124"
     inkscape:window-width="1920"
     inkscape:window-height="991"
     inkscape:window-x="-9"
     inkscape:window-y="-9"
     inkscape:window-maximized="1"
     inkscape:current-layer="layer1" /><defs
     id="defs1" /><g
     inkscape:label="Calque 1"
     inkscape:groupmode="layer"
     id="layer1"><path
       id="path16"
       style="color:#000000;display:inline;fill:#bbfffb;stroke-width:2.38051;stroke-linecap:round;stroke-linejoin:round;-inkscape-stroke:none;paint-order:markers fill stroke"
       d="m 3.8081218,0.21676846 a 0.05951277,0.05951277 0 0 0 -0.041826,0.0701194 L 4.3272505,2.3769349 3.2459373,0.50462662 a 0.05951277,0.05951277 0 0 0 -0.083651,-0.0233742 0.05951277,0.05951277 0 0 0 -0.018449,0.0836512 L 4.2288376,2.4433638 2.692364,0.90935025 a 0.05951277,0.05951277 0 0 0 -0.041826,-0.018451 0.05951277,0.05951277 0 0 0 -0.041826,0.018451 0.05951277,0.05951277 0 0 0 0,0.083651 L 4.1414959,2.5257847 2.2654972,1.4395506 a 0.05951277,0.05951277 0 0 0 -0.083651,0.023374 0.05951277,0.05951277 0 0 0 0.022139,0.07873 L 4.081218,2.6254278 1.9911709,2.0669338 a 0.05951277,0.05951277 0 0 0 -0.075041,0.041826 0.05951277,0.05951277 0 0 0 0.041826,0.075041 L 4.043083,2.7410633 H 1.8841467 a 0.05951277,0.05951277 0 0 0 -0.060277,0.060277 0.05951277,0.05951277 0 0 0 0.060277,0.061508 h 2.1540155 l -2.0802056,0.557265 a 0.05951277,0.05951277 0 0 0 -0.041826,0.075041 0.05951277,0.05951277 0 0 0 0.075041,0.041826 L 4.3174092,2.9145161 1.3022796,8.0738199 a 0.11902554,0.11902554 0 0 0 0.046746,0.1636125 0.11902554,0.11902554 0 0 0 0.1623815,-0.046746 l 3.000368,-5.1285507 0.6126211,2.2831827 a 0.05951277,0.05951277 0 0 0 0.07012,0.041825 0.05951277,0.05951277 0 0 0 0.041826,-0.07012 L 4.6741566,3.2159062 5.7616206,5.0980556 a 0.05951277,0.05951277 0 0 0 0.078731,0.023377 0.05951277,0.05951277 0 0 0 0.023377,-0.083651 L 4.7811808,3.1630091 6.3151942,4.6945622 a 0.05951277,0.05951277 0 0 0 0.083651,0 0.05951277,0.05951277 0 0 0 0,-0.083651 L 4.866062,3.0805882 6.7420607,4.1643619 a 0.05951277,0.05951277 0 0 0 0.079961,-0.023377 0.05951277,0.05951277 0 0 0 -0.023377,-0.078731 L 4.9201891,2.9760242 7.016387,3.5369788 A 0.05951277,0.05951277 0 0 0 7.091428,3.4951528 0.05951277,0.05951277 0 0 0 7.049602,3.4201118 L 4.9657052,2.8628493 h 2.1577059 a 0.05951277,0.05951277 0 0 0 0.014759,-0.00369 0.05951277,0.05951277 0 0 0 0.041826,-0.057818 0.05951277,0.05951277 0 0 0 -0.00245,-0.014759 0.05951277,0.05951277 0 0 0 -0.054128,-0.045515 h -2.15279 l 2.0789734,-0.557268 a 0.05951277,0.05951277 0 0 0 0.041826,-0.075041 0.05951277,0.05951277 0 0 0 -0.075041,-0.041825 L 4.5437591,2.7287615 3.8831617,0.25859401 a 0.05951277,0.05951277 0 0 0 -0.07504,-0.0418255 z"
       inkscape:label="path16" /></g></svg>
